<?xml version="1.0" encoding="utf-8"?>
<!-- Generator: Adobe Illustrator 25.4.1, SVG Export Plug-In . SVG Version: 6.00 Build 0)  -->
<svg version="1.1" id="Layer_1" xmlns="http://www.w3.org/2000/svg" xmlns:xlink="http://www.w3.org/1999/xlink" x="0px" y="0px"
	 viewBox="0 0 244 58" style="enable-background:new 0 0 244 58;" xml:space="preserve">
<style type="text/css">
	.st0{fill:#2584FE;stroke:#231F20;stroke-miterlimit:10;}
	.st1{fill:none;stroke:#231F20;stroke-miterlimit:10;}
	.st2{fill:#231F20;}
</style>
<path class="st0" d="M44.4,16.7h30.9l-1-15.1h-29L44.4,16.7z"/>
<path class="st0" d="M43.1,36.2h33.4l-0.9-14.6H44.1L43.1,36.2z"/>
<path class="st0" d="M4.2,36.2h34l0.9-14.6h-32L4.2,36.2z"/>
<path class="st0" d="M77.9,56.6l-1-15.6h-34l-1,15.6H77.9z"/>
<path class="st0" d="M37.9,41H3.2L0,56.6h36.9L37.9,41z"/>
<path class="st0" d="M80.2,16.7h31.1l-3.4-15.1H79.3L80.2,16.7z"/>
<path class="st0" d="M81.5,36.2h34.1l-3.3-14.6H80.5L81.5,36.2z"/>
<path class="st0" d="M39.5,16.7l1-15.1H11.3L8.2,16.7H39.5z"/>
<path class="st0" d="M116.7,41H81.8l1,15.6h37.4L116.7,41z"/>
<path class="st1" d="M137.5,52.9l-1.8,4.8h-2.3l5.9-15.3h2.7l6,15.3h-2.4l-1.9-4.8H137.5z M143.3,51.3l-1.7-4.4
	c-0.4-1-0.6-1.9-0.9-2.8h-0.1c-0.3,0.9-0.5,1.8-0.9,2.8l-1.7,4.4H143.3z"/>
<path class="st1" d="M162.4,57.2c-0.8,0.4-2.5,0.7-4.6,0.7c-4.9,0-8.6-2.7-8.6-7.7c0-4.8,3.7-8,9.1-8c2.2,0,3.5,0.4,4.1,0.7
	l-0.5,1.6c-0.9-0.4-2.1-0.6-3.5-0.6c-4.1,0-6.8,2.3-6.8,6.3c0,3.7,2.5,6.1,6.7,6.1c1.4,0,2.8-0.2,3.7-0.6L162.4,57.2z"/>
<path class="st1" d="M168.1,52.9l-1.8,4.8H164l5.9-15.3h2.7l6,15.3h-2.4l-1.9-4.8H168.1z M173.9,51.3l-1.7-4.4
	c-0.4-1-0.6-1.9-0.9-2.8h-0.1c-0.3,0.9-0.5,1.8-0.9,2.8l-1.7,4.4H173.9z"/>
<path class="st1" d="M181.2,42.6c1.4-0.2,3-0.3,4.8-0.3c3.2,0,5.5,0.7,7.1,1.9s2.5,3,2.5,5.5s-0.9,4.5-2.5,5.9s-4.3,2.2-7.7,2.2
	c-1.6,0-3-0.1-4.1-0.2L181.2,42.6L181.2,42.6z M183.4,56.1c0.6,0.1,1.4,0.1,2.3,0.1c4.8,0,7.4-2.4,7.4-6.5c0-3.6-2.3-5.9-7.1-5.9
	c-1.2,0-2,0.1-2.6,0.2L183.4,56.1L183.4,56.1z"/>
<path class="st1" d="M207.4,50.5h-6.8V56h7.6v1.7h-9.8V42.4h9.4V44h-7.2v4.8h6.8V50.5L207.4,50.5z"/>
<path class="st1" d="M225.9,51c-0.1-2.1-0.3-4.7-0.3-6.6h-0.1c-0.6,1.8-1.3,3.7-2.2,5.8l-3.1,7.4h-1.7l-2.8-7.3
	c-0.8-2.1-1.5-4.1-2-5.9h-0.1c-0.1,1.9-0.2,4.5-0.3,6.7l-0.5,6.5h-2.2l1.2-15.3h2.9l3,7.4c0.7,1.9,1.3,3.6,1.8,5.1h0.1
	c0.4-1.5,1.1-3.2,1.8-5.1l3.1-7.4h2.9l1.1,15.3h-2.2L225.9,51z"/>
<path class="st1" d="M235.9,57.7v-6.5l-5.5-8.8h2.6l2.5,4.2c0.7,1.2,1.2,2.1,1.7,3.1h0.1c0.5-1,1.1-2,1.8-3.1l2.5-4.2h2.6l-5.9,8.8
	v6.5H235.9z"/>
<path class="st2" d="M134,0h3l7,9.8V0h3.3v15.8h-2.8l-7.3-10.1v10.1H134V0z"/>
<path class="st2" d="M149.8,0h11.3v3.1h-8v3.2h7.1v3.1h-7.1v3.3h8.1v3.1h-11.4L149.8,0L149.8,0z"/>
<path class="st2" d="M161.9,0h3.5l3.1,10.7L171.9,0h2.8l3.4,10.8L181.2,0h3.4l-5.1,16h-2.9l-3.4-10.4L169.9,16H167L161.9,0z"/>
<path class="st2" d="M134,21.2h11.3v3.1h-8v3.2h7.1v3.1h-7.1V34h8.1v3.1H134V21.2z"/>
<path class="st2" d="M147.2,21.2h3l7,9.8v-9.8h3.2V37h-2.8l-7.1-10v10.1h-3.2V21.2H147.2z"/>
<path class="st2" d="M163,21.2h11.3v3.1h-8v3.2h7.1v3.1h-7.1V34h8.1v3.1H163V21.2z"/>
<path class="st2" d="M176.3,21.2h6.8c1.9,0,3.4,0.6,4.4,1.6c0.8,0.9,1.3,2.1,1.3,3.6l0,0c0,2.6-1.3,4.2-3.2,4.9l3.7,5.7h-3.8
	l-3.2-5.1h-2.6V37h-3.3L176.3,21.2L176.3,21.2z M182.9,28.9c1.6,0,2.5-0.9,2.5-2.2l0,0c0-1.5-1-2.3-2.6-2.3h-3.3v4.5H182.9
	L182.9,28.9z"/>
<path class="st2" d="M190,29.2L190,29.2c0-4.5,3.3-8.2,7.8-8.2c2.7,0,4.3,0.8,5.9,2.2l-2.1,2.6c-1.2-1-2.2-1.6-3.9-1.6
	c-2.4,0-4.3,2.2-4.3,4.9l0,0c0,2.9,1.9,5,4.5,5c1.2,0,2.3-0.3,3.1-1v-2.3h-3.3v-3h6.5v6.9c-1.5,1.4-3.7,2.5-6.4,2.5
	C193.2,37.3,190,33.9,190,29.2z"/>
<path class="st2" d="M210,30.8l-5.8-9.6h3.9l3.6,6.4l3.6-6.4h3.7l-5.8,9.5V37H210V30.8L210,30.8z"/>
</svg>
